#!OML:ASF H:\Terrain\Patient Classification 1\Takeo\Monday\TakeoMonday.ASF
:FULLY-SPECIFIED
:DEGREES
2096
root 9.20314 17.8268 -1.46876 -2.63754 -5.26374 -1.03537
lowerback 5.80317 -0.106187 3.83281
upperback 1.48847 0.073292 -0.481828
thorax -1.71332 0.0249031 -2.65416
lowerneck -10.8455 2.04378 -2.42673
upperneck 6.92048 2.97577 1.29943
head 4.17945 1.46595 1.08177
rclavicle -6.91709e-015 4.96962e-017
rhumerus -44.6352 12.0097 -97.7155
rradius 57.853
rwrist -10.2695
rhand -31.7704 35.1125
rfingers 7.12502
rthumb -5.02706 5.19214
lclavicle -6.91709e-015 4.96962e-017
lhumerus -36.103 10.658 84.2911
lradius 28.6326
lwrist 22.0161
lhand -27.0391 16.6978
lfingers 7.12502
lthumb -0.457804 46.6771
rfemur 3.336 -6.57462 23.6848
rtibia 13.5381
rfoot -15.4119 -18.1053
rtoes 8.85978
lfemur -5.29722 8.58547 -21.885
ltibia 25.2647
lfoot -21.6676 28.069
ltoes 10.8481
2097
root 9.18304 17.832 -1.47325 -2.58585 -5.46319 -0.772131
lowerback 5.72188 -0.127008 3.63429
upperback 1.43178 0.0305407 -0.535616
thorax -1.7299 0.00297007 -2.5948
lowerneck -11.1705 2.11868 -1.99291
upperneck 7.29306 3.07428 0.725751
head 4.39265 1.49362 0.82895
rclavicle -2.65253e-014 -8.59744e-015
rhumerus -44.4259 11.4829 -97.513
rradius 57.0377
rwrist -9.86112
rhand -31.7835 34.5789
rfingers 7.12502
rthumb -5.03972 4.6588
lclavicle -2.65253e-014 -8.59744e-015
lhumerus -36.0355 9.96213 84.5751
lradius 28.8655
lwrist 22.9013
lhand -26.8537 17.0426
lfingers 7.12502
lthumb -0.278747 47.0222
rfemur 3.28402 -6.41745 23.4838
rtibia 13.397
rfoot -15.3513 -18.0299
rtoes 8.89535
lfemur -5.41438 8.31363 -22.1278
ltibia 25.351
lfoot -21.9203 28.2752
ltoes 12.0217
2098
root 9.16537 17.8363 -1.47883 -2.56722 -5.6351 -0.746954
lowerback 5.78209 -0.138391 3.73922
upperback 1.30006 0.0263145 -0.532042
thorax -1.89947 -0.00477432 -2.65024
lowerneck -10.9772 2.22619 -1.4926
upperneck 7.3022 3.21033 -0.00428953
head 4.37505 1.53667 0.498576
rclavicle 7.41715e-015 -2.03754e-015
rhumerus -44.4548 11.3122 -97.3875
rradius 56.1874
rwrist -9.93987
rhand -31.9236 34.4962
rfingers 7.12502
rthumb -5.17496 4.57938
lclavicle 7.41715e-015 -2.03754e-015
lhumerus -36.1523 9.41321 84.8398
lradius 29.1765
lwrist 23.2723
lhand -27.332 16.4825
lfingers 7.12502
lthumb -0.740734 46.4609
rfemur 3.19991 -6.34022 23.525
rtibia 13.4716
rfoot -15.3124 -17.9027
rtoes 8.84009
lfemur -5.47606 8.06648 -22.0793
ltibia 25.3416
lfoot -21.5989 28.5866
ltoes 11.3558
2099
root 9.14856 17.8431 -1.47856 -2.65165 -5.82214 -0.459431
lowerback 5.83841 -0.112536 3.65543
upperback 1.19651 0.0577816 -0.615644
thorax -2.03547 0.0070075 -2.69216
lowerneck -10.5103 2.31899 -1.44737
upperneck 7.13467 3.33127 -0.139624
head 4.22179 1.59339 0.443086
rclavicle 4.89973e-015 5.90142e-015
rhumerus -44.455 11.1423 -97.2039
rradius 55.3203
rwrist -10.1924
rhand -31.712 34.2425
rfingers 7.12502
rthumb -4.97065 4.32082
lclavicle 4.89973e-015 5.90142e-015
lhumerus -36.2009 9.13857 84.9694
lradius 29.3206
lwrist 23.0552
lhand -27.6411 16.6523
lfingers 7.12502
lthumb -1.03931 46.6295
rfemur 3.27383 -6.27062 23.2409
rtibia 13.5245
rfoot -15.4044 -17.7438
rtoes 9.20187
lfemur -5.47208 8.14667 -22.2929
ltibia 25.3791
lfoot -20.7478 28.9342
ltoes 9.12557
2100
root 9.13288 17.8465 -1.47902 -2.71553 -5.96975 -0.0146645
lowerback 5.75519 -0.126551 3.34088
upperback 1.21373 0.0149627 -0.693417
thorax -1.97466 -0.0114218 -2.59194
lowerneck -10.846 2.44195 -1.71319
upperneck 7.50686 3.51785 0.144415
head 4.41254 1.68795 0.610313
rclavicle -2.17925e-015 4.3422e-015
rhumerus -44.1165 11.0225 -96.9363
rradius 54.3883
rwrist -10.2978
rhand -31.2923 33.7182
rfingers 7.12502
rthumb -4.56536 3.78741
lclavicle -2.17925e-015 4.3422e-015
lhumerus -35.9989 8.98186 85.0937
lradius 29.3728
lwrist 23.124
lhand -27.463 16.6667
lfingers 7.12502
lthumb -0.867279 46.6447
rfemur 3.30401 -6.09412 22.7969
rtibia 13.5937
rfoot -15.786 -17.575
rtoes 10.4138
lfemur -5.51952 8.35852 -22.6932
ltibia 25.473
lfoot -20.3382 28.9391
ltoes 8.71355
2101
root 9.12128 17.8431 -1.48097 -2.75983 -6.03876 0.218789
lowerback 5.6634 -0.175388 3.20908
upperback 1.24834 -0.0617155 -0.703237
thorax -1.89304 -0.0471367 -2.52205
lowerneck -11.2157 2.5167 -1.83995
upperneck 8.24067 3.64085 0.221523
head 4.25569 1.74652 0.613415
rclavicle 4.53478e-015 7.97623e-015
rhumerus -43.7658 10.9364 -96.7136
rradius 53.3511
rwrist -10.3846
rhand -31.0195 33.9444
rfingers 7.12502
rthumb -4.30196 4.00814
lclavicle 4.53478e-015 7.97623e-015
lhumerus -35.8725 8.85908 85.2163
lradius 29.6797
lwrist 23.49
lhand -27.0218 16.5202
lfingers 7.12502
lthumb -0.441187 46.4995
rfemur 3.22576 -6.15721 22.5667
rtibia 13.8314
rfoot -16.0359 -17.2838
rtoes 11.1389
lfemur -5.51669 8.23044 -22.8719
ltibia 25.5262
lfoot -20.4464 28.6858
ltoes 10.8801
2102
root 9.11035 17.8394 -1.48247 -2.87098 -6.14395 0.485964
lowerback 5.69054 -0.175962 3.10373
upperback 1.24923 -0.0702128 -0.811879
thorax -1.9079 -0.0512973 -2.57434
lowerneck -11.0623 2.51674 -1.66366
upperneck 7.75972 3.63121 0.00999613
head 4.55138 1.73479 0.571868
rclavicle -1.13975e-014 -7.7526e-015
rhumerus -43.5563 10.7438 -96.6112
rradius 52.281
rwrist -10.6115
rhand -31.2516 34.3154
rfingers 7.12502
rthumb -4.52607 4.3838
lclavicle -1.13975e-014 -7.7526e-015
lhumerus -35.9401 8.44246 85.3179
lradius 30.3183
lwrist 24.3177
lhand -26.7878 17.3438
lfingers 7.12502
lthumb -0.215185 47.3234
rfemur 3.03637 -6.25574 22.2894
rtibia 14.4001
rfoot -16.2545 -17.0163
rtoes 11.5229
lfemur -5.35573 7.95112 -23.0934
ltibia 25.4388
lfoot -20.9385 28.4418
ltoes 13.1507
2103
root 9.09947 17.8371 -1.47882 -3.08946 -6.29538 0.862239
lowerback 5.75437 -0.117958 2.93118
upperback 1.3013 -0.00507209 -0.957936
thorax -1.88556 -0.0171692 -2.6328
lowerneck -10.8493 2.51718 -1.70994
upperneck 7.58978 3.62566 0.0798749
head 4.44343 1.73684 0.596775
rclavicle -1.35034e-014 -1.81391e-014
rhumerus -43.2843 10.1323 -96.3441
rradius 51.2156
rwrist -10.6651
rhand -31.6187 33.4304
rfingers 7.12502
rthumb -4.88058 3.50662
lclavicle -1.35034e-014 -1.81391e-014
lhumerus -35.9836 7.93369 85.5541
lradius 30.8523
lwrist 24.9295
lhand -26.9793 17.8695
lfingers 7.12502
lthumb -0.400111 47.8488
rfemur 2.88922 -6.21514 21.8733
rtibia 15.1469
rfoot -16.6585 -16.8113
rtoes 11.5603
lfemur -5.02283 7.94005 -23.4399
ltibia 25.2589
lfoot -21.4596 28.2086
ltoes 13.602
2104
root 9.09297 17.8234 -1.46648 -3.4506 -6.45909 1.69993
lowerback 5.72832 -0.0179691 2.27983
upperback 1.43352 0.0841869 -1.14211
thorax -1.72996 0.0335978 -2.46199
lowerneck -10.8755 2.53535 -2.0629
upperneck 7.69279 3.68455 0.283708
head 4.47466 1.76477 0.735098
rclavicle -4.76151e-015 6.01324e-015
rhumerus -42.8606 9.40402 -95.8846
rradius 50.047
rwrist -10.5831
rhand -31.5757 31.7078
rfingers 7.12502
rthumb -4.83907 1.7831
lclavicle -4.76151e-015 6.01324e-015
lhumerus -35.8545 7.70808 85.8914
lradius 31.0262
lwrist 24.8078
lhand -27.2275 17.7542
lfingers 7.12502
lthumb -0.639787 47.733
rfemur 2.92786 -6.36994 20.868
rtibia 15.874
rfoot -17.0328 -16.3925
rtoes 10.6432
lfemur -4.47494 8.03025 -24.3024
ltibia 25.0109
lfoot -21.747 27.6642
ltoes 13.2897
2105
root 9.08577 17.8175 -1.4616 -3.64913 -6.61834 2.36307
lowerback 5.6487 -0.0292544 1.62966
upperback 1.49621 0.0292204 -1.18584
thorax -1.62511 0.00979862 -2.13664
lowerneck -11.1024 2.61981 -2.14488
upperneck 8.33555 3.8345 0.134629
head 4.26037 1.82617 0.647834
rclavicle -7.39852e-015 8.94531e-015
rhumerus -42.4131 9.35314 -95.5383
rradius 48.8101
rwrist -10.7179
rhand -31.2958 31.3022
rfingers 7.12502
rthumb -4.56879 1.37143
lclavicle -7.39852e-015 8.94531e-015
lhumerus -35.6934 7.92142 86.0881
lradius 31.1655
lwrist 24.7582
lhand -27.4945 17.3513
lfingers 7.12502
lthumb -0.897667 47.3292
rfemur 2.80417 -6.44708 20.1172
rtibia 16.5058
rfoot -17.2662 -16.0986
rtoes 10.5228
lfemur -4.13998 8.12616 -24.9798
ltibia 24.7469
lfoot -21.2184 27.3124
ltoes 11.8351
2106
root 9.07642 17.8304 -1.46002 -3.66297 -6.67434 2.60385
lowerback 5.59936 -0.157003 1.3538
upperback 1.4633 -0.15644 -1.14649
thorax -1.63991 -0.0826441 -1.92792
lowerneck -11.0004 2.66345 -2.13734
upperneck 8.20801 3.92004 -0.171481
head 4.2103 1.85213 0.555527
rclavicle -3.72721e-015 -2.38542e-015
rhumerus -42.1825 9.53424 -95.3426
rradius 47.767
rwrist -11.0305
rhand -31.1701 31.9441
rfingers 7.12502
rthumb -4.44737 2.01077
lclavicle -3.72721e-015 -2.38542e-015
lhumerus -35.7044 8.28759 86.0834
lradius 31.5284
lwrist 24.8878
lhand -27.47 17.4606
lfingers 7.12502
lthumb -0.874055 47.4386
rfemur 2.55123 -6.38686 19.881
rtibia 16.9813
rfoot -17.5415 -16.0024
rtoes 10.9322
lfemur -4.02768 8.39381 -25.1679
ltibia 24.5396
lfoot -20.3883 27.0184
ltoes 8.5491
